# Alias OBJ Model File
# Exported from SketchUp, (c) 2000-2012 Trimble Navigation Limited
# File units = meters

mtllib button_out.mtl

g Mesh1 Model

usemtl FrontColor
v 0.1 0 -0.1
vt -3.93701 3.93701
vn 0 -1 -0
v 0.1 0 -0
vt -3.93701 0
v 0 0 -0
vt 0 0
v 0 0 -0.1
vt 0 3.93701
f 1/1/1 2/2/1 3/3/1 4/4/1 

vn 1 0 -0
vt 3.93701 0
v 0.1 0.1 -0.1
vt 3.93701 3.93701
v 0.1 0.1 -0
f 2/3/2 1/5/2 5/6/2 6/4/2 

vn 0 0 -1
v 0 0.1 -0.1
f 1/2/3 4/3/3 7/4/3 5/1/3 

vn -1 0 -0
v 0 0.1 -0
f 4/2/4 3/3/4 8/4/4 7/1/4 

vn 0 0 1
f 3/3/5 2/5/5 6/6/5 8/4/5 

v 0.0408494 0.1 -0.0158494
vt 1.60824 0.623991
vn 0 1 -0
f 9/7/6 8/3/6 6/5/6

v 0.0323223 0.1 -0.0193814
vt 1.27253 0.763046
f 10/8/6 8/3/6 9/7/6

v 0.025 0.1 -0.025
vt 0.984252 0.984252
f 11/9/6 8/3/6 10/8/6

v 0.0193814 0.1 -0.0323223
vt 0.763046 1.27253
f 12/10/6 8/3/6 11/9/6

v 0.0158494 0.1 -0.0408494
vt 0.623991 1.60824
f 13/11/6 8/3/6 12/10/6

f 8/3/6 13/11/6 7/4/6

v 0.0146447 0.1 -0.05
vt 0.576561 1.9685
f 7/4/6 13/11/6 14/12/6

vt 1.87641 3.93701
vn 1 1.61165e-31 7.9506e-15
vt 1.51304 3.93701
vn 0.965926 1.53478e-31 -0.258819
v 0.0158494 0.05 -0.0408494
vt 1.51304 1.9685
v 0.0146447 0.05 -0.05
vt 1.87641 1.9685
f 14/13/7 13/14/8 15/15/8 16/16/7 

vt 1.24703 3.93701
vt 0.883662 3.93701
vn 0.866025 1.35332e-31 -0.5
v 0.0193814 0.05 -0.0323223
vt 0.883662 1.9685
vt 1.24703 1.9685
f 13/17/8 12/18/9 17/19/9 15/20/8 

vt 0.545055 3.93701
vt 0.181685 3.93701
vn 0.707107 1.07963e-31 -0.707107
v 0.025 0.05 -0.025
vt 0.181685 1.9685
vt 0.545055 1.9685
f 12/21/9 11/22/10 18/23/10 17/24/9 

vt -0.181685 3.93701
vt -0.545055 3.93701
vn 0.5 7.32365e-32 -0.866025
v 0.0323223 0.05 -0.0193814
vt -0.545055 1.9685
vt -0.181685 1.9685
f 11/25/10 10/26/11 19/27/11 18/28/10 

vt -0.883662 3.93701
vt -1.24703 3.93701
vn 0.258819 3.35192e-32 -0.965926
v 0.0408494 0.05 -0.0158494
vt -1.24703 1.9685
vt -0.883662 1.9685
f 10/29/11 9/30/12 20/31/12 19/32/11 

vt -1.51304 3.93701
v 0.05 0.1 -0.0146447
vt -1.87641 3.93701
vn 7.64266e-15 -8.48236e-33 -1
v 0.05 0.05 -0.0146447
vt -1.87641 1.9685
vt -1.51304 1.9685
f 9/33/12 21/34/13 22/35/13 20/36/12 

vt 1.9685 0.576561
f 9/7/6 6/5/6 21/37/6

v 0.0591506 0.1 -0.0158494
vt 2.32877 0.623991
f 21/37/6 6/5/6 23/38/6

v 0.0676777 0.1 -0.0193814
vt 2.66448 0.763046
f 23/38/6 6/5/6 24/39/6

v 0.075 0.1 -0.025
vt 2.95276 0.984252
f 24/39/6 6/5/6 25/40/6

v 0.0806186 0.1 -0.0323223
vt 3.17396 1.27253
f 25/40/6 6/5/6 26/41/6

v 0.0841506 0.1 -0.0408494
vt 3.31302 1.60824
f 26/41/6 6/5/6 27/42/6

v 0.0853553 0.1 -0.05
vt 3.36045 1.9685
f 27/42/6 6/5/6 28/43/6

f 5/6/6 28/43/6 6/5/6

v 0.0841506 0.1 -0.0591506
vt 3.31302 2.32877
f 5/6/6 29/44/6 28/43/6

v 0.0806186 0.1 -0.0676777
vt 3.17396 2.66448
f 5/6/6 30/45/6 29/44/6

v 0.075 0.1 -0.075
vt 2.95276 2.95276
f 5/6/6 31/46/6 30/45/6

v 0.0676777 0.1 -0.0806186
vt 2.66448 3.17396
f 5/6/6 32/47/6 31/46/6

v 0.0591506 0.1 -0.0841506
vt 2.32877 3.31302
f 5/6/6 33/48/6 32/47/6

v 0.05 0.1 -0.0853553
vt 1.9685 3.36045
f 5/6/6 34/49/6 33/48/6

v 0.0408494 0.1 -0.0841506
vt 1.60824 3.31302
f 5/6/6 35/50/6 34/49/6

f 7/4/6 35/50/6 5/6/6

v 0.0323223 0.1 -0.0806186
vt 1.27253 3.17396
f 35/50/6 7/4/6 36/51/6

v 0.025 0.1 -0.075
vt 0.984252 2.95276
f 36/51/6 7/4/6 37/52/6

v 0.0193814 0.1 -0.0676777
vt 0.763046 2.66448
f 37/52/6 7/4/6 38/53/6

v 0.0158494 0.1 -0.0591506
vt 0.623991 2.32877
f 38/53/6 7/4/6 39/54/6

f 39/54/6 7/4/6 14/12/6

vt 2.39029 3.93701
vn 0.965926 1.57869e-31 0.258819
vt 2.02692 3.93701
vt 2.02692 1.9685
v 0.0158494 0.05 -0.0591506
vt 2.39029 1.9685
f 39/55/14 14/56/7 16/57/7 40/58/14 

vn -1.61165e-31 1 -8.48236e-33
v 0.0591506 0.05 -0.0158494
v 0.0676777 0.05 -0.0193814
v 0.075 0.05 -0.025
v 0.0806186 0.05 -0.0323223
v 0.0841506 0.05 -0.0408494
v 0.0853553 0.05 -0.05
v 0.0841506 0.05 -0.0591506
v 0.0806186 0.05 -0.0676777
v 0.075 0.05 -0.075
v 0.0676777 0.05 -0.0806186
v 0.0591506 0.05 -0.0841506
v 0.05 0.05 -0.0853553
v 0.0408494 0.05 -0.0841506
v 0.0323223 0.05 -0.0806186
v 0.025 0.05 -0.075
v 0.0193814 0.05 -0.0676777
f 17/10/15 18/9/15 19/8/15 20/7/15 22/37/15 41/38/15 42/39/15 43/40/15 44/41/15 45/42/15 46/43/15 47/44/15 48/45/15 49/46/15 50/47/15 51/48/15 52/49/15 53/50/15 54/51/15 55/52/15 56/53/15 40/54/15 16/12/15 15/11/15 

vt -2.02692 3.93701
vt -2.39029 3.93701
vn -0.258819 -4.99059e-32 -0.965926
vt -2.39029 1.9685
vt -2.02692 1.9685
f 21/59/13 23/60/16 41/61/16 22/62/13 

vt -2.75366 3.93701
vn -0.5 -8.79283e-32 -0.866025
vt -2.75366 1.9685
f 23/60/16 24/63/17 42/64/17 41/61/16 

vt -2.57838 3.93701
vt -2.94175 3.93701
vn -0.707107 -1.19959e-31 -0.707107
vt -2.94175 1.9685
vt -2.57838 1.9685
f 24/65/17 25/66/18 43/67/18 42/68/17 

vn -0.866025 -1.43814e-31 -0.5
f 25/65/18 26/66/19 44/67/19 43/68/18 

vn -0.965926 -1.57869e-31 -0.258819
f 26/60/19 27/63/20 45/64/20 44/61/19 

vn -1 -1.61165e-31 5.26835e-09
f 27/59/20 28/60/21 46/61/21 45/62/20 

vn -0.965926 -1.53478e-31 0.258819
f 28/33/21 29/34/22 47/35/22 46/36/21 

vn -0.866025 -1.35332e-31 0.5
f 29/29/22 30/30/23 48/31/23 47/32/22 

vn -0.707107 -1.07963e-31 0.707107
f 30/25/23 31/26/24 49/27/24 48/28/23 

vn -0.5 -7.32365e-32 0.866025
f 31/21/24 32/22/25 50/23/25 49/24/24 

vn -0.258819 -3.35192e-32 0.965926
f 32/17/25 33/18/26 51/19/26 50/20/25 

vn 1.58051e-08 8.48236e-33 1
f 33/13/26 34/14/27 52/15/27 51/16/26 

vn 0.258819 4.99059e-32 0.965926
f 34/55/27 35/56/28 53/57/28 52/58/27 

vt 2.75366 3.93701
vn 0.5 8.79283e-32 0.866025
vt 2.75366 1.9685
f 35/69/28 36/55/29 54/58/29 53/70/28 

vt 2.94175 3.93701
vt 2.57838 3.93701
vn 0.707107 1.19959e-31 0.707107
vt 2.57838 1.9685
vt 2.94175 1.9685
f 36/71/29 37/72/30 55/73/30 54/74/29 

vn 0.866025 1.43814e-31 0.5
f 37/71/30 38/72/31 56/73/31 55/74/30 

f 38/69/31 39/55/14 40/58/14 56/70/31 

