# Alias OBJ Model File
# Exported from SketchUp, (c) 2000-2012 Trimble Navigation Limited
# File units = meters

mtllib my_drawer_socket_1.mtl

g Mesh1 Model

usemtl FrontColor
v 0.275425 0.283617 -0
vt 10.8435 11.166
vn 0 0 1
v 0.185505 0.313591 -0
vt 7.30333 12.3461
v 0.0245745 0.283617 -0
vt 0.967502 11.166
f 1/1/1 2/2/1 3/3/1

v 0.275425 0.367234 -0
vt 10.8435 14.458
f 2/2/1 1/1/1 4/4/1

vt 0 14.458
vn 1 0 -0
vt 0 11.166
v 0.275425 0.283617 -0.5
vt 19.685 11.166
v 0.275425 0.367234 -0.5
vt 19.685 14.458
f 4/5/2 1/6/2 5/7/2 6/8/2 

vt -10.8435 0
vn 0 -1 -0
vt -0.967502 0
v 0.0245745 0.283617 -0.5
vt -0.967502 19.685
vt -10.8435 19.685
f 1/9/3 3/10/3 7/11/3 5/12/3 

vn -1 0 -0
v 0.0245745 0.367234 -0
v 0.0245745 0.367234 -0.5
vt -19.685 14.458
vt -19.685 11.166
f 3/6/4 8/5/4 9/13/4 7/14/4 

v 0.114495 0.313591 -0
vt 4.50769 12.3461
vt 0.967502 14.458
f 3/3/1 10/15/1 8/16/1

f 10/15/1 3/3/1 2/2/1

vt -4.50769 0
vt -7.30333 0
v 0.185505 0.313591 0.01
vt -7.30333 -0.393701
v 0.114495 0.313591 0.01
vt -4.50769 -0.393701
f 10/17/3 2/18/3 11/19/3 12/20/3 

vt 0 12.3461
vn 1 1.90621e-15 -0
v 0.185505 0.33726 -0
vt 0 13.278
v 0.185505 0.33726 0.01
vt -0.393701 13.278
vt -0.393701 12.3461
f 2/21/5 13/22/5 14/23/5 11/24/5 

vt 7.30333 13.278
f 2/2/1 4/4/1 13/25/1

v 0.114495 0.33726 -0
vt 4.50769 13.278
f 13/25/1 4/4/1 15/26/1

f 15/26/1 4/4/1 8/16/1

v 0.0345745 0.367234 -0.01
vt 1.3612 0.393701
vn -1.79866e-16 1 -0
vt 0.967502 0
vt 10.8435 0
f 16/27/6 8/28/6 4/29/6

vt 0.967502 19.685
f 8/28/6 16/27/6 9/30/6

v 0.0345745 0.367234 -0.49
vt 1.3612 19.2913
f 17/31/6 9/30/6 16/27/6

vt 10.8435 19.685
f 9/30/6 17/31/6 6/32/6

v 0.264575 0.367234 -0.49
vt 10.4163 19.2913
f 6/32/6 17/31/6 18/33/6

vt 10.4163 14.458
vt 1.3612 14.458
v 0.0345745 0.297234 -0.49
vt 1.3612 11.7021
v 0.264575 0.297234 -0.49
vt 10.4163 11.7021
f 18/34/1 17/35/1 19/36/1 20/37/1 

vt 19.2913 14.458
vt 0.393701 14.458
v 0.0345745 0.297234 -0.01
vt 0.393701 11.7021
vt 19.2913 11.7021
f 17/38/2 16/39/2 21/40/2 19/41/2 

vt -1.3612 14.458
vn 0 0 -1
v 0.264575 0.367234 -0.01
vt -10.4163 14.458
v 0.264575 0.297234 -0.01
vt -10.4163 11.7021
vt -1.3612 11.7021
f 16/42/7 22/43/7 23/44/7 21/45/7 

vt 10.4163 0.393701
f 16/27/6 4/29/6 22/46/6

f 22/46/6 4/29/6 18/33/6

f 6/32/6 18/33/6 4/29/6

vt -19.2913 11.7021
vt -0.393701 11.7021
vt -0.393701 14.458
vt -19.2913 14.458
f 20/47/4 23/48/4 22/49/4 18/50/4 

vn 0 1 -0
f 23/46/8 20/33/8 19/31/8 21/27/8 

vt -10.8435 11.166
vt -0.967502 11.166
vt -0.967502 14.458
vt -10.8435 14.458
f 5/51/7 7/52/7 9/53/7 6/54/7 

f 8/16/1 10/15/1 15/26/1

vt 0.393701 12.3461
v 0.114495 0.33726 0.01
vt 0.393701 13.278
f 15/22/4 10/21/4 12/55/4 24/56/4 

f 12/15/1 11/2/1 14/25/1 24/26/1 

vt 7.30333 0
vt 4.50769 0
vt 4.50769 -0.393701
vt 7.30333 -0.393701
f 13/57/8 15/58/8 24/59/8 14/60/8 

